<svg width="43" height="43" viewBox="0 0 43 43" fill="none" xmlns="http://www.w3.org/2000/svg">
<rect width="43" height="43" fill="black" fill-opacity="0"/>
<rect width="21" height="12" fill="black" fill-opacity="0" transform="translate(11 11)"/>
<rect width="21" height="12" fill="black" fill-opacity="0" transform="translate(11 11)"/>
<path d="M31.7851 11.2319C31.4957 10.9227 31.0254 10.9227 30.7359 11.2319L21.5101 21.1063L12.2663 11.2319C11.9768 10.9227 11.5065 10.9227 11.2171 11.2319C10.9276 11.5411 10.9276 12.0435 11.2171 12.3527L20.9675 22.7681C21.1122 22.9227 21.2931 23 21.4921 23C21.673 23 21.8719 22.9227 22.0167 22.7681L31.767 12.3527C32.0746 12.0435 32.0746 11.5411 31.7851 11.2319Z" fill="black"/>
<rect width="21" height="12" fill="black" fill-opacity="0" transform="translate(11 17)"/>
<rect width="21" height="12" fill="black" fill-opacity="0" transform="translate(11 17)"/>
<path d="M31.7851 17.2319C31.4957 16.9227 31.0254 16.9227 30.7359 17.2319L21.5101 27.1063L12.2663 17.2319C11.9768 16.9227 11.5065 16.9227 11.2171 17.2319C10.9276 17.5411 10.9276 18.0435 11.2171 18.3527L20.9675 28.7681C21.1122 28.9227 21.2931 29 21.4921 29C21.673 29 21.8719 28.9227 22.0167 28.7681L31.767 18.3527C32.0746 18.0435 32.0746 17.5411 31.7851 17.2319Z" fill="black"/>
<rect width="21" height="12" fill="black" fill-opacity="0" transform="translate(11 23)"/>
<rect width="21" height="12" fill="black" fill-opacity="0" transform="translate(11 23)"/>
<path d="M31.7851 23.2319C31.4957 22.9227 31.0254 22.9227 30.7359 23.2319L21.5101 33.1063L12.2663 23.2319C11.9768 22.9227 11.5065 22.9227 11.2171 23.2319C10.9276 23.5411 10.9276 24.0435 11.2171 24.3527L20.9675 34.7681C21.1122 34.9227 21.2931 35 21.4921 35C21.673 35 21.8719 34.9227 22.0167 34.7681L31.767 24.3527C32.0746 24.0435 32.0746 23.5411 31.7851 23.2319Z" fill="black"/>
<circle cx="21.5" cy="21.5" r="21" stroke="black"/>
</svg>
