<svg width="303" height="303" viewBox="0 0 303 303" fill="none" xmlns="http://www.w3.org/2000/svg">
<path d="M224.85 163.176C228.555 153.221 233.479 132.863 233.057 122.112C232.577 109.903 229.953 97.7256 225.144 86.5163C225.144 86.5163 218.332 82.6003 214.293 84.2693C210.254 85.9383 215.654 94.2765 215.654 94.2765L210.129 120.359C208.928 123.941 207.001 127.936 204.948 131.695C204.948 131.695 207.837 120.623 208.77 113.311C209.703 105.999 210.704 88.0977 206.952 85.3564C203.199 82.6152 194.462 77.768 192.356 82.7521C190.25 87.7363 195.869 91.0736 195.869 91.0736C195.869 91.0736 195.783 105.649 191.568 115.974C187.352 126.299 178.31 135.952 178.31 135.952L175.663 135.741C177.529 129.897 183.012 113.613 184.18 103.37C185.348 93.126 181.24 75.802 181.24 75.802C181.24 75.802 177.982 69.54 170.343 70.4074C162.704 71.2747 161.692 77.7391 161.692 77.7391C161.692 77.7391 162.297 82.9796 163.569 83.3859C164.842 83.7923 166.091 82.6249 166.091 82.6249C166.091 82.6249 166.556 85.5581 165.295 89.5066C164.034 93.455 155.297 102.152 155.297 102.152C152.113 97.3057 148.388 95.2461 148.388 95.2461L155.406 95.2248L143.159 91.3134L145.801 87.9801C145.801 87.9801 132.562 89.1165 127.106 90.5378C121.65 91.959 111.369 96.9591 102.87 103.857C94.6826 110.503 85.2236 127.268 79.4952 139.729C73.8391 152.033 68.073 166.713 67.0872 178.582L72.2664 175.536C72.2664 175.536 68.5648 189.322 77.9758 204.859C87.3868 220.396 97.0815 222.97 97.0815 222.97C97.0815 222.97 104.608 225.199 107.707 224.275C110.807 223.35 112.056 222.183 112.056 222.183C112.056 222.183 103.813 210.674 102.917 203.6C102.266 198.464 103.081 187.005 103.575 181.113C103.702 182.767 104.213 184.814 105.625 186.886C110.377 193.859 121.22 202.224 127.912 206.013C139.193 212.4 159.087 215.969 159.087 215.969L154.16 211.089C154.16 211.089 166.326 213.06 176.805 211.533C187.283 210.006 199.376 203.425 199.376 203.425L194.379 200.959C194.379 200.959 205.704 192.393 210.627 186.307C215.55 180.221 221.145 173.132 224.85 163.176Z" fill="#F2C94C"/>
<path d="M138.638 98.1992C155.907 102.729 158.676 118.19 158.676 118.19C158.676 118.19 152.939 118.919 151.383 125.513C149.828 132.108 155.651 134.558 155.651 134.558C155.651 134.558 149.062 144.273 132.283 141.081C115.504 137.89 109.638 126.955 109.638 126.955C109.638 126.955 115.276 124.816 115.713 118.849C116.151 112.882 110.499 109.896 110.499 109.896C110.499 109.896 121.37 93.6691 138.638 98.1992Z" fill="#F2C94C"/>
<ellipse rx="2.63094" ry="2.10475" transform="matrix(-0.9526 -0.304225 -0.304225 0.9526 110.369 118.952)" fill="#F2C94C"/>
<circle r="2.63094" transform="matrix(-0.9526 -0.304225 -0.304225 0.9526 155.557 126.202)" fill="#F2C94C"/>
</svg>
