<svg width="288" height="112" viewBox="0 0 288 112" fill="none" xmlns="http://www.w3.org/2000/svg">
<path d="M284.637 79.2251C244.982 92.1645 214.739 94.3622 171.829 84.8055C171.752 84.7885 171.672 84.7886 171.595 84.8065C171.053 84.9335 171.055 85.7156 171.6 85.8271C179.245 87.3891 203.404 92.6779 213.451 99.0321C223.471 105.37 232.915 109.714 239.452 111.138C241.211 111.522 242.553 109.69 241.981 107.998C241.068 105.3 244.152 101.427 246.947 102.087C254.774 103.935 260.849 103.685 268.687 101.61C269.773 101.323 270.309 100.122 269.68 99.1992C268.594 97.6064 269.836 93.6922 271.771 93.5524C277.567 93.1337 281.98 91.7179 286.91 88.8916C288.408 88.0328 288.341 85.9129 286.84 85.0594L285.506 84.3009C284.327 83.6308 284.595 81.8386 285.828 81.2723C287.484 80.5118 286.37 78.6595 284.637 79.2251Z" fill="#F2C94C"/>
<path d="M273.973 36.872C242.067 63.5449 214.841 76.7716 171.433 83.7803C171.355 83.7928 171.281 83.8228 171.216 83.8676C170.761 84.186 171.058 84.9109 171.606 84.8124C179.286 83.4335 203.691 79.4022 215.407 81.58C227.092 83.752 237.491 84.2879 244.092 83.1915C245.868 82.8965 246.423 80.7004 245.254 79.3429C243.389 77.1774 244.79 72.4443 247.631 72.0224C255.589 70.8407 261.13 68.3615 267.618 63.5377C268.517 62.8693 268.562 61.5569 267.63 60.9337C266.022 59.8581 265.698 55.7677 267.441 54.922C272.659 52.3897 276.219 49.4437 279.727 44.9979C280.793 43.6472 279.93 41.7057 278.216 41.4693L276.693 41.2592C275.347 41.0735 274.92 39.3118 275.85 38.3305C277.099 37.0125 275.368 35.7061 273.973 36.872Z" fill="#F2C94C"/>
<path d="M246.46 0.971418C227.657 37.8942 207.84 60.6297 170.676 83.9247C170.61 83.9662 170.553 84.0229 170.512 84.089C170.219 84.5586 170.778 85.1104 171.244 84.8071C177.764 80.5577 198.623 67.3772 210.264 64.8339C221.873 62.2973 231.653 58.7544 237.292 55.184C238.81 54.2231 238.451 51.9874 236.839 51.1921C234.266 49.9235 233.683 45.0253 236.13 43.5342C242.984 39.3586 247.101 34.9274 251.162 27.9712C251.725 27.0073 251.247 25.7825 250.143 25.5707C248.238 25.2051 246.322 21.5676 247.59 20.1132C251.39 15.7582 253.5 11.6661 254.968 6.21444C255.414 4.55803 253.853 3.10646 252.182 3.55425L250.698 3.95217C249.386 4.30375 248.296 2.84868 248.763 1.58482C249.391 -0.112481 247.282 -0.642502 246.46 0.971418Z" fill="#F2C94C"/>
<path d="M3.36298 79.2251C43.0181 92.1645 73.2614 94.3622 116.171 84.8055C116.248 84.7885 116.328 84.7886 116.405 84.8065C116.947 84.9335 116.945 85.7156 116.4 85.8271C108.755 87.3891 84.5962 92.6779 74.5494 99.0321C64.5292 105.37 55.0847 109.714 48.5484 111.138C46.7891 111.522 45.4466 109.69 46.019 107.998C46.9321 105.3 43.8482 101.427 41.0531 102.087C33.2256 103.935 27.1512 103.685 19.3133 101.61C18.2274 101.323 17.6909 100.122 18.32 99.1992C19.4061 97.6064 18.1642 93.6922 16.2289 93.5524C10.4335 93.1337 6.02003 91.7179 1.0896 88.8916C-0.408447 88.0328 -0.340714 85.9129 1.16038 85.0594L2.49428 84.3009C3.67283 83.6308 3.40468 81.8386 2.17186 81.2723C0.516261 80.5118 1.62962 78.6595 3.36298 79.2251Z" fill="#F2C94C"/>
<path d="M14.0271 36.872C45.9332 63.5449 73.1592 76.7716 116.567 83.7803C116.645 83.7928 116.719 83.8228 116.784 83.8676C117.239 84.186 116.942 84.9109 116.394 84.8124C108.714 83.4335 84.3088 79.4022 72.593 81.58C60.9082 83.752 50.5091 84.2879 43.9085 83.1915C42.132 82.8965 41.5774 80.7004 42.7463 79.3429C44.6109 77.1774 43.2104 72.4443 40.3688 72.0224C32.411 70.8407 26.8705 68.3615 20.3821 63.5377C19.4831 62.8693 19.4383 61.5569 20.3698 60.9337C21.9779 59.8581 22.3019 55.7677 20.5594 54.922C15.3412 52.3897 11.781 49.4437 8.27318 44.9979C7.20737 43.6472 8.06959 41.7057 9.7839 41.4693L11.3073 41.2592C12.6532 41.0735 13.0803 39.3118 12.1502 38.3305C10.9012 37.0125 12.6325 35.7061 14.0271 36.872Z" fill="#F2C94C"/>
<path d="M41.5404 0.971418C60.3432 37.8942 80.1595 60.6297 117.324 83.9247C117.39 83.9662 117.447 84.0229 117.488 84.089C117.781 84.5586 117.222 85.1104 116.756 84.8071C110.236 80.5577 89.3768 67.3772 77.7364 64.8339C66.1267 62.2973 56.3471 58.7544 50.708 55.184C49.1903 54.2231 49.5489 51.9874 51.1614 51.1921C53.7335 49.9235 54.3174 45.0253 51.8699 43.5342C45.016 39.3586 40.8993 34.9274 36.8381 27.9712C36.2754 27.0073 36.7534 25.7825 37.8569 25.5707C39.762 25.2051 41.6782 21.5676 40.4096 20.1132C36.6105 15.7582 34.5005 11.6661 33.0319 6.21444C32.5857 4.55803 34.147 3.10646 35.8177 3.55425L37.3024 3.95217C38.6142 4.30375 39.704 2.84868 39.2366 1.58482C38.6088 -0.112481 40.7185 -0.642502 41.5404 0.971418Z" fill="#F2C94C"/>
<circle cx="142.177" cy="85.6709" r="17.3165" fill="#F2C94C"/>
</svg>
