<svg width="276" height="145" viewBox="0 0 276 145" fill="none" xmlns="http://www.w3.org/2000/svg">
<path d="M143.403 68.2629C140.842 74.1049 138.851 79.8702 137.334 85.4646C135.818 79.8702 133.827 74.1049 131.266 68.2629C119.166 40.6658 124.171 21.3471 137.334 8.36964C150.498 21.3471 155.503 40.6658 143.403 68.2629Z" fill="#F2C94C"/>
<path d="M204.96 110.414C198.62 111.117 192.632 112.276 187.028 113.76C191.115 109.649 195.113 105.042 198.891 99.903C216.741 75.6255 235.974 70.3008 253.795 75.2121C249.138 93.1007 234.91 107.095 204.96 110.414Z" fill="#F2C94C"/>
<path d="M76.0871 100.19C79.8657 105.33 83.8632 109.936 87.9498 114.047C82.3467 112.563 76.3584 111.404 70.0183 110.702C40.0685 107.382 25.8406 93.3881 21.1836 75.4994C39.0042 70.5881 58.2373 75.9128 76.0871 100.19Z" fill="#F2C94C"/>
<path d="M137.063 142.462C134.706 136.423 132.64 125.249 133.271 111.29M133.271 111.29C133.626 103.426 134.837 94.6768 137.334 85.4646M133.271 111.29C136.921 123.672 137.682 134.132 137.006 140.225M133.271 111.29C129.565 98.7193 122.881 84.1682 111.702 70.1976C89.5129 42.467 93.2634 19.6893 107.971 2.59818M137.334 85.4646C138.851 79.8702 140.842 74.1049 143.403 68.2629C155.503 40.6658 150.498 21.3471 137.334 8.36964M137.334 85.4646C139.938 95.071 141.144 104.173 141.439 112.295M137.334 85.4646C135.818 79.8702 133.827 74.1049 131.266 68.2629C119.166 40.6658 124.171 21.3471 137.334 8.36964M137.334 8.36964C134.978 6.047 132.361 3.92749 129.534 2M137.334 8.36964C139.69 6.047 142.308 3.92749 145.135 2M137.995 140.225C137.337 134.298 138.04 124.237 141.439 112.295M141.439 112.295C145.081 99.4984 151.82 84.542 163.298 70.1976C185.488 42.467 181.737 19.6893 167.029 2.59818M141.439 112.295C141.929 125.785 139.906 136.569 137.606 142.462M137.532 142.023C141.583 136.963 150.227 129.587 162.631 123.153M162.631 123.153C169.62 119.528 177.802 116.203 187.028 113.76M162.631 123.153C153.733 132.505 145.055 138.395 139.44 140.855M162.631 123.153C171.665 113.658 180.925 100.595 187.434 83.9281C200.355 50.8461 221.956 42.7054 244.111 46.8973M187.028 113.76C192.632 112.276 198.62 111.117 204.96 110.414C234.91 107.095 249.138 93.1007 253.795 75.2121M187.028 113.76C180.011 120.818 172.731 126.413 165.845 130.729M187.028 113.76C191.115 109.649 195.113 105.042 198.891 99.903C216.741 75.6255 235.974 70.3008 253.795 75.2121M253.795 75.2121C254.628 72.0104 255.155 68.6841 255.411 65.2718M253.795 75.2121C256.984 76.091 260.128 77.2979 263.211 78.7827M139.935 141.712C144.739 138.178 153.803 133.756 165.845 130.729M165.845 130.729C178.748 127.486 195.07 125.843 213.232 128.611C248.342 133.963 266.193 119.326 273.64 98.0429M165.845 130.729C154.407 137.898 144.057 141.538 137.803 142.493M137.175 142.78C130.767 141.802 120.057 138.004 108.284 130.479M108.284 130.479C101.65 126.239 94.6792 120.816 87.9498 114.047M108.284 130.479C120.831 133.509 130.271 138.079 135.209 141.712M108.284 130.479C95.544 127.403 79.6006 125.915 61.9122 128.611C26.802 133.963 8.95128 119.326 1.50391 98.0427M87.9498 114.047C83.8632 109.936 79.8657 105.33 76.0871 100.19C58.2373 75.9128 39.0042 70.5881 21.1836 75.4994M87.9498 114.047C97.5712 116.595 106.057 120.102 113.238 123.907M87.9498 114.047C82.3467 112.563 76.3584 111.404 70.0183 110.702C40.0685 107.382 25.8406 93.3881 21.1836 75.4994M21.1836 75.4994C17.9942 76.3784 14.85 77.5852 11.7671 79.07M21.1836 75.4994C20.3501 72.2977 19.8232 68.9714 19.5676 65.5591M135.704 140.855C130.242 138.461 121.88 132.822 113.238 123.907M113.238 123.907C103.977 114.355 94.3937 101.04 87.7101 83.9279C74.7895 50.8459 53.1882 42.7052 31.0329 46.897M113.238 123.907C125.165 130.228 133.493 137.372 137.446 142.31" stroke="#F2C94C" stroke-width="3" stroke-linecap="round"/>
</svg>
