<svg width="207" height="196" viewBox="0 0 207 196" fill="none" xmlns="http://www.w3.org/2000/svg">
<path d="M77.309 30.6336L81.2319 30.4317L81.7493 20.0851L76.5268 21.0212L77.309 30.6336Z" fill="#F2C94C"/>
<path d="M1.33749 20.8684C-6.62547 17.8703 22.572 34.5986 46.4548 31.8269C70.3375 29.0551 93.0501 19.1981 92.0278 10.3812C91.0055 1.56424 85.5059 -2.51075 61.8511 1.61931C38.5472 5.6943 16.5429 26.6016 1.33749 20.8684Z" fill="#F2C94C"/>
<path d="M174.743 75.9482C189.326 66.0972 193.422 53.3093 196.913 57.6841C198.145 59.2015 186.943 75.9176 171.152 83.7249C155.879 91.2814 149.228 92.4378 148.015 90.9204C143.722 85.5421 160.159 85.7991 174.743 75.9482Z" fill="#F2C94C"/>
<path d="M206.354 56.5828C206.237 49.8217 200.812 43.9723 194.037 44.3456C189.505 44.5903 187.983 47.98 184.799 52.5873C183.124 49.2343 181.967 47.98 178.549 49.167C176.763 49.7789 176.565 53.3338 178.037 56.8643C178.827 58.716 179.879 60.4465 181.16 62.0039C180.92 62.1447 180.719 62.3423 180.575 62.579C179.626 64.2066 181.806 67.2353 185.501 69.3401C189.197 71.4449 192.892 71.8304 193.859 70.2028C194.083 69.7819 194.14 69.2929 194.019 68.8322C201.089 68.6854 206.471 63.2765 206.354 56.5828Z" fill="#F2C94C"/>
<path d="M81.7306 194.612C77.6845 194.215 73.1826 193.028 71.7353 192.024C69.6107 190.55 70.8177 182.534 70.9717 180.454L72.9978 153.489C73.1518 151.403 75.4612 151.96 78.325 152.168C79.3842 157.564 78.4728 182.106 80.6714 183.617C89.2379 189.509 99.19 194.258 91.3071 194.833C88.1169 195.122 84.9039 195.048 81.7306 194.612Z" fill="#F2C94C"/>
<path d="M122.753 190.262C118.688 190.262 114.087 189.491 112.554 188.628C110.294 187.362 110.706 179.273 110.706 177.18L110.134 150.148C110.091 148.056 112.443 148.392 115.307 148.313C116.883 153.581 118.325 178.098 120.659 179.395C129.755 184.449 140.113 188.237 132.323 189.552C129.171 190.151 125.959 190.389 122.753 190.262Z" fill="#F2C94C"/>
<path d="M90.4389 157.161C129.53 157.161 161.219 128.306 161.219 92.7132C161.219 57.12 129.53 28.266 90.4389 28.266C51.3483 28.266 19.6591 57.12 19.6591 92.7132C19.6591 128.306 51.3483 157.161 90.4389 157.161Z" fill="#F2C94C"/>
<path d="M100.299 148.423C62.5345 148.423 31.939 120.069 31.939 85.0952C31.939 65.0507 41.9959 47.1598 57.6878 35.5834C35.1045 46.34 19.6528 67.8897 19.6528 92.7129C19.6528 128.305 51.3445 157.16 90.4326 157.16C113.749 157.16 134.435 146.893 147.331 131.052C134.311 142.348 117.584 148.526 100.299 148.423Z" fill="#F2C94C"/>
<path d="M70.7079 82.0674C72.9799 81.944 74.7211 80.014 74.5968 77.7566C74.4726 75.4993 72.53 73.7695 70.2579 73.8929C67.9859 74.0163 66.2448 75.9463 66.369 78.2037C66.4933 80.461 68.4358 82.1908 70.7079 82.0674Z" fill="#F2C94C"/>
<path d="M129.021 76.0981C131.293 75.9746 133.034 74.0447 132.91 71.7873C132.785 69.53 130.843 67.8002 128.571 67.9236C126.299 68.047 124.558 69.977 124.682 72.2344C124.806 74.4917 126.749 76.2215 129.021 76.0981Z" fill="#F2C94C"/>
<path d="M76.6439 55.5792C76.884 56.3073 72.8872 54.9 68.453 56.3379C64.0189 57.7757 61.6787 60.9819 61.457 60.2538C61.2353 59.5256 63.5878 56.4541 68.0219 55.0162C72.4561 53.5784 76.4037 54.851 76.6439 55.5792Z" fill="#F2C94C"/>
<path d="M119.815 53.4253C119.698 54.184 123.32 52.4769 127.926 53.1867C132.533 53.8965 135.409 56.6437 135.526 55.885C135.643 55.1263 132.748 52.5259 128.135 51.8161C123.523 51.1064 119.932 52.6666 119.815 53.4253Z" fill="#F2C94C"/>
<path d="M117.364 92.1319C116.329 96.2313 111.495 99.8107 104.154 99.8841C96.8127 99.9575 91.8674 96.4638 90.7897 92.395C89.4594 87.3532 91.4425 85.2607 104 84.6427C118.053 83.9452 118.392 88.0446 117.364 92.1319Z" fill="#F2C94C"/>
<path d="M21.3095 126.665C19.7268 144.116 26.3656 159.326 20.7306 159.235C18.7783 159.235 12.86 140.016 16.7891 122.933C20.5889 106.413 23.9022 100.563 25.8545 100.594C32.7705 100.729 22.8922 109.246 21.3095 126.665Z" fill="#F2C94C"/>
<path d="M33.6326 146.031C31.6149 144.247 29.1407 143.05 26.4826 142.574C27.1847 142.054 27.5665 141.485 27.5111 140.928C27.3509 139.227 23.3048 138.211 18.4704 138.664C13.6359 139.117 9.84843 140.86 10.0086 142.561C10.0763 143.308 10.9015 143.926 12.2133 144.342C9.41118 146.178 7.41582 149.671 8.97392 156.873C10.4704 163.75 18.4765 165.213 24.5057 164.044C30.227 162.949 31.9698 159.81 31.0029 153.642C32.7827 154.419 34.501 154.401 35.4863 153.422C37.0383 151.911 36.2069 148.588 33.6326 146.031Z" fill="#F2C94C"/>
</svg>
