<svg width="170" height="171" viewBox="0 0 170 171" fill="none" xmlns="http://www.w3.org/2000/svg">
<g clip-path="url(#clip0)">
<path d="M22.8286 48.8915C29.1429 47.6873 34.7286 44.5563 39.3429 39.9803C39.5857 39.4986 40.0714 39.2577 40.5571 39.2577C42.2571 39.4986 43.9571 39.7394 45.6571 40.2211C46.3857 40.7028 46.8714 41.4253 47.1143 42.1479C47.6 42.8704 48.0857 43.8338 48.3286 44.5563C49.3 46.9648 51.2429 48.8915 51.2429 51.5408C51.4857 51.7817 51.9714 52.0225 52.2143 52.0225C52.9429 51.7817 53.6714 51.3 54.4 51.0591C55.3714 50.5775 55.3714 50.0958 54.6429 49.3732C51.4857 46.7239 51 44.3155 53.4286 40.9437C54.6429 39.4986 56.1 38.0535 57.8 36.8493C66.0571 30.3465 70.9143 22.3986 70.4286 11.5606C70.1857 7.70704 69.4571 3.61268 68 0C66.7857 0.722535 65.8143 1.44507 64.8429 2.16761C59.7429 5.78028 55.8571 10.5972 53.4286 16.1366C50.7571 22.6394 51.2429 29.3831 52.7 36.1268C52.9429 36.6084 52.9429 37.0901 52.7 37.5718C51.7286 39.0169 50.7571 40.462 49.7857 41.907C47.6 37.8127 45.4143 33.7183 43.2286 29.6239C42.9857 29.3831 42.9857 28.9014 42.9857 28.6606L43.4714 26.9746C40.3143 26.4929 36.9143 26.4929 35.7 28.6606C37.1571 29.1422 38.8571 29.6239 40.3143 30.1056C40.5571 30.1056 40.5571 30.3465 40.8 30.3465C42.0143 32.5141 43.2286 34.6817 44.2 36.8493L43.9571 37.331C42.0143 37.0901 40.0714 36.6084 38.3714 35.8859C34 33.9591 29.3857 32.7549 24.7714 32.5141C17 32.2732 10.6857 35.1634 4.85714 39.7394C3.15714 40.9437 1.7 42.6296 0 44.0746C7.28571 47.9282 14.8143 50.3366 22.8286 48.8915V48.8915Z" fill="#F2C94C"/>
<path d="M167.814 77.07L157.857 81.8869C145.957 62.1376 128.957 49.6137 106.129 45.2785C88.6428 41.9066 72.3714 45.0376 56.8285 53.2264C27.4428 68.8813 8.01421 107.416 24.2856 147.156L14.5713 151.973C3.88563 126.684 4.12849 101.636 17.7285 77.5517C35.2142 46.2419 62.8999 31.0686 98.8428 33.2362C129.443 35.4038 152.271 50.8179 167.814 77.07Z" fill="#F2C94C"/>
<path d="M78.9289 82.3687C75.7718 75.8659 72.6146 69.3631 69.2146 63.1012C67.7575 60.4519 68.2432 58.766 71.1575 57.8026C82.3289 53.9491 94.2289 52.9857 105.886 55.3941C109.043 56.1167 109.529 57.8026 108.557 60.4519C103.943 74.18 99.3289 87.9081 94.4718 101.395C93.986 102.6 93.0146 103.804 91.5575 104.286C90.1003 104.045 89.1289 103.081 88.4003 101.877C85.486 95.3743 82.3289 88.8715 78.9289 82.3687V82.3687Z" fill="#F2C94C"/>
<path d="M73.1001 85.5002C76.5001 92.003 79.6572 98.5058 82.8144 105.249C83.3001 106.454 83.3001 107.899 82.8144 109.344C81.6001 110.066 80.3858 110.307 79.1715 109.825C65.3287 105.249 51.243 100.433 37.4001 95.8565C34.4858 94.8931 34.0001 93.2072 35.2144 90.5579C40.3144 80.2016 48.0858 71.2904 58.043 64.7876C60.7144 63.1017 62.4144 63.5834 63.6287 66.4735C66.543 72.7355 69.7001 78.9974 73.1001 85.5002Z" fill="#F2C94C"/>
<path d="M125.557 98.0238C119 101.155 112.443 104.527 105.886 107.658C104.671 108.139 102.486 108.38 101.757 107.898C101.028 106.694 100.786 105.008 101.271 103.563C105.886 89.8351 110.5 76.1069 115.114 62.6196C116.086 59.7295 117.786 59.007 120.457 60.452C131.143 65.5098 139.886 73.2168 146.443 82.8506C148.628 85.9816 148.143 86.9449 144.743 88.8717C138.186 91.7618 131.871 94.8928 125.557 98.0238V98.0238Z" fill="#F2C94C"/>
<path d="M57.314 131.261C50.7568 134.391 44.1997 137.522 37.6426 140.894C34.9711 142.339 33.2711 141.617 32.2997 138.727C28.414 127.648 27.6854 115.606 30.114 104.045C30.5997 101.637 32.0568 100.673 34.7283 101.396C48.814 106.213 62.8997 110.789 76.9854 115.846C78.1997 116.328 79.1711 117.292 79.414 118.496C79.1711 119.7 78.1997 120.904 76.9854 121.386C70.6711 124.999 63.8711 128.13 57.314 131.261V131.261Z" fill="#F2C94C"/>
<path d="M93.5 112.956C99.3286 115.364 105.886 118.014 111.957 120.663C117.543 123.072 120.214 129.333 118.271 134.873C116.571 140.412 111.229 144.266 105.4 144.025C99.8143 143.784 95.2 139.69 94.2286 134.15C93.9857 132.224 93.7429 130.538 93.7429 128.611C93.7429 123.312 93.5 118.014 93.5 112.956ZM111.957 138.726L112.443 136.318C111.471 135.836 110.5 135.836 109.529 135.836C106.857 137.281 103.7 136.559 101.757 134.391C100.786 133.91 99.8143 133.669 98.8429 133.91C98.6 134.873 98.6 136.077 98.8429 137.04C101.514 140.412 107.586 141.376 111.957 138.726V138.726Z" fill="#F2C94C"/>
<path d="M71.6429 144.748C74.0715 148.842 76.9858 153.178 79.4143 157.513C81.6001 161.366 80.6286 166.424 76.9858 168.832C73.3429 171.482 68.4858 171.482 65.0858 168.592C61.6858 165.942 60.7143 161.607 62.6572 157.754C63.3858 156.549 64.1143 155.345 64.8429 154.382C67.2715 151.01 69.4572 147.638 71.6429 144.748V144.748ZM71.6429 168.351L73.1001 167.147C72.6143 166.424 72.1286 165.942 71.4001 165.461C69.2143 165.22 67.5143 163.293 67.2715 161.125C66.7858 160.403 66.3001 159.921 65.8143 159.44C65.3286 159.921 64.8429 160.644 64.6001 161.366C64.3572 164.738 67.7572 168.11 71.6429 168.351Z" fill="#F2C94C"/>
</g>
<defs>
<clipPath id="clip0">
<rect width="170" height="171" fill="white"/>
</clipPath>
</defs>
</svg>
