<svg width="159" height="159" viewBox="0 0 159 159" fill="none" xmlns="http://www.w3.org/2000/svg">
<path d="M96.2758 8.74246C93.4289 5.00343 72.994 13.7046 70.0557 17.3722C63.1764 25.9485 60.9494 38.2306 73.5358 47.6395C74.9952 48.7305 77.3861 48.6086 76.7797 46.8903C75.9819 44.6297 80.2732 44.0765 81.2189 46.2794C81.5326 47.0103 81.8699 47.7534 82.2319 48.5085C82.6924 49.4691 83.8278 49.8965 84.7976 49.4557C92.4559 45.9749 105.794 37.6519 102.78 22.7482C101.684 17.3287 99.2681 12.6726 96.2758 8.74246Z" fill="#F2C94C"/>
<path d="M78.5651 38.3784C79.9308 44.0832 87.0876 44.694 89.3524 39.2829C94.317 27.4212 94.4156 13.6811 88.7866 1.34333C88.6387 1.01918 88.145 0.513749 87.8659 0.292254C85.6978 -1.42848 77.0538 4.90167 76.0475 7.48014C74.9265 10.3521 73.0387 13.6437 70.0516 17.3722C66.4961 21.8047 64.1834 27.227 64.5161 32.731C64.9789 40.3867 73.2605 35.1591 74.8248 27.6507C75.557 24.1364 77.062 20.655 79.7045 17.481C80.817 16.1448 80.9228 16.2491 80.1407 17.802C78.452 21.1547 76.1143 28.1406 78.5651 38.3784Z" fill="#F2C94C"/>
<path d="M59.7197 23.6375C60.5583 23.6375 61.2381 22.9577 61.2381 22.1191C61.2381 21.2805 60.5583 20.6006 59.7197 20.6006C58.8811 20.6006 58.2012 21.2805 58.2012 22.1191C58.2012 22.9577 58.8811 23.6375 59.7197 23.6375Z" fill="#F2C94C"/>
<path d="M63.061 19.4955C63.6608 19.4955 64.1471 19.0093 64.1471 18.4095C64.1471 17.8097 63.6608 17.3234 63.061 17.3234C62.4612 17.3234 61.975 17.8097 61.975 18.4095C61.975 19.0093 62.4612 19.4955 63.061 19.4955Z" fill="#F2C94C"/>
<path d="M57.0347 12.73C58.5289 12.73 59.7402 11.5187 59.7402 10.0244C59.7402 8.53021 58.5289 7.3189 57.0347 7.3189C55.5405 7.3189 54.3292 8.53021 54.3292 10.0244C54.3292 11.5187 55.5405 12.73 57.0347 12.73Z" fill="#F2C94C"/>
<path d="M67.3437 12.005C67.8212 12.005 68.2082 11.6179 68.2082 11.1405C68.2082 10.6631 67.8212 10.2761 67.3437 10.2761C66.8663 10.2761 66.4793 10.6631 66.4793 11.1405C66.4793 11.6179 66.8663 12.005 67.3437 12.005Z" fill="#F2C94C"/>
<path d="M73.2933 2.01686C73.9855 3.20951 73.5889 4.73072 72.3987 5.42569C71.2112 6.11509 69.6876 5.71847 68.9926 4.52824C68.3004 3.34635 68.7026 1.81994 69.8873 1.12497C71.072 0.43001 72.6012 0.829414 73.2933 2.01686Z" fill="#F2C94C"/>
<path d="M62.7268 150.262C65.5727 154 86.0098 145.299 88.9475 141.633C95.8248 133.056 98.0536 120.773 85.4627 111.364C84.0042 110.274 81.6149 110.396 82.2212 112.113C83.019 114.372 78.7272 114.924 77.7823 112.722C77.4688 111.992 77.132 111.25 76.7704 110.496C76.3104 109.536 75.176 109.109 74.207 109.549C66.5493 113.03 53.2115 121.353 56.223 136.258C57.319 141.677 59.7347 146.332 62.7268 150.262Z" fill="#F2C94C"/>
<path d="M80.4362 120.619C79.0703 114.915 71.9143 114.304 69.6493 119.715C64.6829 131.578 64.5849 145.322 70.2124 157.657C70.3602 157.981 70.8538 158.486 71.1326 158.708C73.3001 160.429 81.9481 154.099 82.9551 151.52C84.0764 148.65 85.9641 145.36 88.9501 141.633C92.5023 137.203 94.8143 131.784 94.4847 126.283C94.0259 118.626 85.7426 123.855 84.174 131.364C83.4747 134.711 82.0733 138.029 79.6547 141.079C78.3609 142.711 78.223 142.574 79.1083 140.69C80.7634 137.166 82.7701 130.367 80.4362 120.619Z" fill="#F2C94C"/>
<path d="M99.28 138.414C100.117 138.414 100.796 137.735 100.796 136.898C100.796 136.061 100.117 135.382 99.28 135.382C98.4429 135.382 97.7643 136.061 97.7643 136.898C97.7643 137.735 98.4429 138.414 99.28 138.414Z" fill="#F2C94C"/>
<path d="M95.9436 141.68C96.5434 141.68 97.0296 141.194 97.0296 140.594C97.0296 139.994 96.5434 139.508 95.9436 139.508C95.3438 139.508 94.8575 139.994 94.8575 140.594C94.8575 141.194 95.3438 141.68 95.9436 141.68Z" fill="#F2C94C"/>
<path d="M101.963 151.691C103.459 151.691 104.671 150.478 104.671 148.982C104.671 147.486 103.459 146.274 101.963 146.274C100.467 146.274 99.2547 147.486 99.2547 148.982C99.2547 150.478 100.467 151.691 101.963 151.691Z" fill="#F2C94C"/>
<path d="M91.6603 148.736C92.1393 148.736 92.5275 148.347 92.5275 147.868C92.5275 147.389 92.1393 147.001 91.6603 147.001C91.1813 147.001 90.7931 147.389 90.7931 147.868C90.7931 148.347 91.1813 148.736 91.6603 148.736Z" fill="#F2C94C"/>
<path d="M87.8458 158.212C89.2223 158.212 90.3381 157.096 90.3381 155.72C90.3381 154.343 89.2223 153.228 87.8458 153.228C86.4694 153.228 85.3535 154.343 85.3535 155.72C85.3535 157.096 86.4694 158.212 87.8458 158.212Z" fill="#F2C94C"/>
<path d="M141.395 41.3304C142.026 36.6749 121.42 28.3758 116.751 28.8921C105.827 30.0889 95.5695 37.198 97.8113 52.7498C98.0715 54.5549 99.8515 56.1598 100.638 54.5144C101.672 52.3506 105.098 54.995 104.208 57.2222C103.913 57.9614 103.626 58.7258 103.348 59.5163C102.994 60.5218 103.495 61.6276 104.493 62.0018C112.371 64.9552 127.682 68.5006 136.09 55.8334C139.147 51.2262 140.732 46.2254 141.395 41.3304Z" fill="#F2C94C"/>
<path d="M107.919 49.7639C104.851 54.7637 109.48 60.256 114.908 58.0304C126.805 53.1517 136.59 43.5043 141.333 30.7987C141.458 30.4653 141.466 29.7593 141.425 29.4058C141.109 26.6586 130.523 25.0221 127.991 26.1334C125.167 27.3728 121.502 28.3667 116.751 28.8921C111.112 29.5098 105.652 31.7025 101.996 35.8182C96.8998 41.5546 106.459 43.7178 112.882 39.5209C114.483 38.4752 116.232 37.5914 118.139 36.9378C122.387 35.4823 122.452 36.3137 118.625 38.6615C115.315 40.6917 111.4 44.0913 107.919 49.7639Z" fill="#F2C94C"/>
<path d="M106.086 26.4552C106.923 26.4552 107.602 25.7766 107.602 24.9396C107.602 24.1025 106.923 23.4239 106.086 23.4239C105.249 23.4239 104.571 24.1025 104.571 24.9396C104.571 25.7766 105.249 26.4552 106.086 26.4552Z" fill="#F2C94C"/>
<path d="M111.077 25.7658C111.675 25.7658 112.16 25.2808 112.16 24.6826C112.16 24.0843 111.675 23.5993 111.077 23.5993C110.478 23.5993 109.993 24.0843 109.993 24.6826C109.993 25.2808 110.478 25.7658 111.077 25.7658Z" fill="#F2C94C"/>
<path d="M112.741 17.1952C114.237 17.1952 115.449 15.9826 115.449 14.4869C115.449 12.9911 114.237 11.7786 112.741 11.7786C111.245 11.7786 110.032 12.9911 110.032 14.4869C110.032 15.9826 111.245 17.1952 112.741 17.1952Z" fill="#F2C94C"/>
<path d="M120.08 22.7876C119.959 23.2526 119.483 23.5291 119.024 23.4086C118.559 23.2856 118.282 22.815 118.403 22.3444C118.526 21.8902 118.996 21.6113 119.459 21.729C119.921 21.852 120.203 22.3281 120.08 22.7876Z" fill="#F2C94C"/>
<path d="M127.491 22.185C128.866 22.185 129.981 21.0704 129.981 19.6955C129.981 18.3206 128.866 17.206 127.491 17.206C126.116 17.206 125.002 18.3206 125.002 19.6955C125.002 21.0704 126.116 22.185 127.491 22.185Z" fill="#F2C94C"/>
<path d="M17.6056 117.675C16.9758 122.327 37.5829 130.629 42.2489 130.114C53.1744 128.912 63.4346 121.805 61.1905 106.251C60.9302 104.446 59.1519 102.841 58.3652 104.486C57.3304 106.65 53.9045 104.007 54.7936 101.779C55.0883 101.041 55.375 100.277 55.6527 99.4879C56.0062 98.483 55.506 97.3779 54.5086 97.0034C46.6329 94.0461 31.318 90.5039 22.91 103.167C19.8525 107.776 18.2685 112.779 17.6056 117.675Z" fill="#F2C94C"/>
<path d="M51.0836 109.242C54.1518 104.242 49.5225 98.7499 44.0948 100.975C32.1969 105.854 22.4111 115.5 17.669 128.202C17.5446 128.535 17.5366 129.241 17.5773 129.595C17.8935 132.339 28.4825 133.979 31.0129 132.869C33.8366 131.631 37.4993 130.638 42.2489 130.114C47.8947 129.493 53.3629 127.295 57.0198 123.17C62.1078 117.43 52.5551 115.27 46.1379 119.472C44.2806 120.688 42.2229 121.686 39.95 122.359C36.0153 123.524 35.9793 122.846 39.5532 120.83C43.0233 118.872 47.3088 115.393 51.0836 109.242Z" fill="#F2C94C"/>
<path d="M52.9154 135.599C53.754 135.599 54.4338 134.919 54.4338 134.081C54.4338 133.242 53.754 132.562 52.9154 132.562C52.0768 132.562 51.3969 133.242 51.3969 134.081C51.3969 134.919 52.0768 135.599 52.9154 135.599Z" fill="#F2C94C"/>
<path d="M47.9242 135.409C48.5225 135.409 49.0075 134.924 49.0075 134.326C49.0075 133.728 48.5225 133.243 47.9242 133.243C47.3259 133.243 46.8409 133.728 46.8409 134.326C46.8409 134.924 47.3259 135.409 47.9242 135.409Z" fill="#F2C94C"/>
<path d="M46.2587 147.236C47.7529 147.236 48.9642 146.025 48.9642 144.531C48.9642 143.036 47.7529 141.825 46.2587 141.825C44.7644 141.825 43.5531 143.036 43.5531 144.531C43.5531 146.025 44.7644 147.236 46.2587 147.236Z" fill="#F2C94C"/>
<path d="M39.7574 137.3C40.2364 137.3 40.6247 136.912 40.6247 136.433C40.6247 135.954 40.2364 135.566 39.7574 135.566C39.2785 135.566 38.8902 135.954 38.8902 136.433C38.8902 136.912 39.2785 137.3 39.7574 137.3Z" fill="#F2C94C"/>
<path d="M31.5101 141.795C32.885 141.795 33.9996 140.681 33.9996 139.306C33.9996 137.931 32.885 136.816 31.5101 136.816C30.1352 136.816 29.0206 137.931 29.0206 139.306C29.0206 140.681 30.1352 141.795 31.5101 141.795Z" fill="#F2C94C"/>
<path d="M150.261 96.2772C153.998 93.4313 145.296 72.9941 141.629 70.0574C133.051 63.1767 120.768 60.9502 111.357 73.5488C110.269 75.0053 110.392 77.3918 112.107 76.7859C114.361 75.9889 114.913 80.2804 112.716 81.2244C111.986 81.5377 111.245 81.8745 110.491 82.2359C109.533 82.6953 109.107 83.8276 109.547 84.7948C113.027 92.4505 121.35 105.796 136.256 102.782C141.675 101.686 146.331 99.2698 150.261 96.2772Z" fill="#F2C94C"/>
<path d="M120.624 78.5678C114.919 79.9331 114.308 87.0902 119.72 89.3548C131.581 94.3183 145.32 94.4175 157.659 88.7863C157.983 88.6387 158.487 88.1461 158.708 87.8677C160.427 85.703 154.099 77.0579 151.524 76.0533C148.652 74.9327 145.359 73.0449 141.629 70.0574C136.366 65.8356 129.708 63.366 123.175 64.9979C116.727 66.6083 119.357 74.1885 126.002 74.2657C132.257 74.3383 133.311 77.1764 127.069 77.5772C125.09 77.7043 122.94 78.0135 120.624 78.5678Z" fill="#F2C94C"/>
<path d="M136.883 61.2364C137.719 61.2364 138.396 60.559 138.396 59.7235C138.396 58.888 137.719 58.2106 136.883 58.2106C136.048 58.2106 135.37 58.888 135.37 59.7235C135.37 60.559 136.048 61.2364 136.883 61.2364Z" fill="#F2C94C"/>
<path d="M140.589 64.1474C141.189 64.1474 141.675 63.6611 141.675 63.0613C141.675 62.4615 141.189 61.9753 140.589 61.9753C139.989 61.9753 139.503 62.4615 139.503 63.0613C139.503 63.6611 139.989 64.1474 140.589 64.1474Z" fill="#F2C94C"/>
<path d="M150.344 59.371C149.052 60.1288 147.4 59.6912 146.64 58.4027C145.887 57.1031 146.319 55.4481 147.608 54.6986C148.899 53.9408 150.554 54.3732 151.31 55.6669C152.07 56.9554 151.635 58.6104 150.344 59.371Z" fill="#F2C94C"/>
<path d="M147.863 68.1965C148.342 68.1965 148.731 67.8082 148.731 67.3293C148.731 66.8503 148.342 66.462 147.863 66.462C147.384 66.462 146.996 66.8503 146.996 67.3293C146.996 67.8082 147.384 68.1965 147.863 68.1965Z" fill="#F2C94C"/>
<path d="M156.981 73.2994C155.788 73.9889 154.272 73.5922 153.577 72.402C152.885 71.2201 153.282 69.6881 154.469 68.9932C155.657 68.3038 157.183 68.706 157.875 69.8851C158.567 71.0781 158.171 72.6073 156.981 73.2994Z" fill="#F2C94C"/>
<path d="M8.74276 62.7275C5.00675 65.5713 13.7058 86.0142 17.3698 88.9502C25.9405 95.8237 38.2245 98.055 47.6339 85.4703C48.7253 84.0106 48.6013 81.6184 46.8828 82.2254C44.6229 83.0238 44.0706 78.7318 46.273 77.7863C47.0038 77.4726 47.7469 77.1353 48.5021 76.7733C49.4619 76.3131 49.8894 75.1789 49.4495 74.2096C45.9736 66.5497 37.6504 53.2118 22.7455 56.2258C17.3274 57.3216 12.6722 59.7364 8.74276 62.7275Z" fill="#F2C94C"/>
<path d="M38.3805 80.4356C44.0842 79.0685 44.6932 71.9125 39.2825 69.6485C27.42 64.6848 13.6786 64.5875 1.33979 70.2175C1.01636 70.3651 0.511759 70.8584 0.290824 71.1369C-1.42486 73.2998 4.90188 81.9464 7.47367 82.9502C10.3465 84.0714 13.6394 85.961 17.3698 88.9502C21.7921 92.4968 27.203 94.8068 32.6975 94.4839C40.3575 94.0339 35.1273 85.7438 27.6177 84.1679C24.2765 83.4667 20.966 82.0656 17.9225 79.6512C16.2917 78.3575 16.4273 78.2205 18.311 79.1065C21.8333 80.7633 28.6327 82.7721 38.3805 80.4356Z" fill="#F2C94C"/>
<path d="M22.1054 100.803C22.944 100.803 23.6238 100.123 23.6238 99.2847C23.6238 98.4461 22.944 97.7663 22.1054 97.7663C21.2668 97.7663 20.5869 98.4461 20.5869 99.2847C20.5869 100.123 21.2668 100.803 22.1054 100.803Z" fill="#F2C94C"/>
<path d="M18.4039 97.0223C19.0022 97.0223 19.4872 96.5373 19.4872 95.939C19.4872 95.3408 19.0022 94.8558 18.4039 94.8558C17.8057 94.8558 17.3207 95.3408 17.3207 95.939C17.3207 96.5373 17.8057 97.0223 18.4039 97.0223Z" fill="#F2C94C"/>
<path d="M8.65361 99.6303C9.9449 98.878 11.5998 99.3156 12.3577 100.607C13.1099 101.895 12.6779 103.551 11.3894 104.306C10.0981 105.064 8.44314 104.626 7.68531 103.337C6.9247 102.046 7.36509 100.391 8.65361 99.6303Z" fill="#F2C94C"/>
<path d="M11.1354 92.5258C11.6143 92.5258 12.0026 92.1375 12.0026 91.6585C12.0026 91.1796 11.6143 90.7913 11.1354 90.7913C10.6564 90.7913 10.2681 91.1796 10.2681 91.6585C10.2681 92.1375 10.6564 92.5258 11.1354 92.5258Z" fill="#F2C94C"/>
<path d="M3.27225 90.3522C4.64717 90.3522 5.76176 89.2376 5.76176 87.8627C5.76176 86.4877 4.64717 85.3732 3.27225 85.3732C1.89733 85.3732 0.782732 86.4877 0.782732 87.8627C0.782732 89.2376 1.89733 90.3522 3.27225 90.3522Z" fill="#F2C94C"/>
<path d="M117.673 141.396C122.329 142.026 130.628 121.42 130.112 116.75C128.913 105.826 121.806 95.5717 106.255 97.8134C104.45 98.0735 102.844 99.8533 104.489 100.64C106.653 101.674 104.011 105.098 101.785 104.209C101.044 103.913 100.279 103.626 99.4873 103.347C98.482 102.993 97.3764 103.494 97.0021 104.492C94.0464 112.372 90.5002 127.684 103.171 136.092C107.778 139.149 112.778 140.733 117.673 141.396Z" fill="#F2C94C"/>
<path d="M109.24 107.922C104.241 104.853 98.748 109.482 100.974 114.91C105.852 126.806 115.498 136.589 128.2 141.335C128.533 141.46 129.24 141.468 129.593 141.427C132.34 141.11 133.979 130.518 132.868 127.986C131.63 125.163 130.637 121.5 130.112 116.75C129.493 111.115 127.302 105.658 123.191 102.003C117.457 96.9034 115.292 106.466 119.487 112.891C120.531 114.49 121.413 116.237 122.066 118.141C123.521 122.389 122.69 122.455 120.342 118.627C118.311 115.318 114.912 111.403 109.24 107.922Z" fill="#F2C94C"/>
<path d="M134.063 107.609C134.9 107.609 135.578 106.931 135.578 106.093C135.578 105.256 134.9 104.578 134.063 104.578C133.226 104.578 132.547 105.256 132.547 106.093C132.547 106.931 133.226 107.609 134.063 107.609Z" fill="#F2C94C"/>
<path d="M134.048 112.124C133.468 111.973 133.126 111.382 133.277 110.81C133.427 110.228 134.018 109.88 134.593 110.031C135.173 110.187 135.523 110.772 135.37 111.36C135.213 111.932 134.625 112.282 134.048 112.124Z" fill="#F2C94C"/>
<path d="M144.515 115.448C146.01 115.448 147.221 114.236 147.221 112.742C147.221 111.248 146.01 110.037 144.515 110.037C143.021 110.037 141.81 111.248 141.81 112.742C141.81 114.236 143.021 115.448 144.515 115.448Z" fill="#F2C94C"/>
<path d="M136.215 120.084C135.75 119.962 135.476 119.485 135.591 119.026C135.717 118.561 136.19 118.284 136.658 118.405C137.115 118.528 137.391 118.998 137.271 119.458C137.153 119.923 136.674 120.207 136.215 120.084Z" fill="#F2C94C"/>
<path d="M139.309 129.977C140.684 129.977 141.798 128.862 141.798 127.487C141.798 126.112 140.684 124.998 139.309 124.998C137.934 124.998 136.819 126.112 136.819 127.487C136.819 128.862 137.934 129.977 139.309 129.977Z" fill="#F2C94C"/>
<path d="M41.3257 17.6046C36.6714 16.9747 28.3689 37.5821 28.8845 42.2505C30.0862 53.1742 37.1952 63.4329 52.7434 61.193C54.5487 60.9329 56.1549 59.1529 54.5093 58.3662C52.3455 57.3318 54.9917 53.9029 57.219 54.7924C57.9586 55.0878 58.7235 55.3751 59.5145 55.6535C60.52 56.0074 61.6258 55.5064 62 54.5083C64.9535 46.6317 68.4988 31.3165 55.8343 22.9089C51.225 19.8513 46.2223 18.2674 41.3257 17.6046Z" fill="#F2C94C"/>
<path d="M49.7618 51.0866C54.7618 54.1544 60.2538 49.5251 58.0281 44.0976C53.1489 32.1994 43.5 22.4133 30.7958 17.6712C30.4627 17.5469 29.7571 17.5389 29.4039 17.5796C26.6604 17.8956 25.0194 28.4833 26.1285 31.0125C27.3669 33.8366 28.3598 37.4997 28.8845 42.2505C29.5045 47.8863 31.6969 53.3456 35.8094 57.0024C41.5439 62.1013 43.7087 52.5412 39.514 46.1155C38.4704 44.5168 37.5883 42.77 36.9358 40.8656C35.4803 36.618 36.311 36.5525 38.6585 40.38C40.6885 43.6899 44.0883 47.6054 49.7618 51.0866Z" fill="#F2C94C"/>
<path d="M24.9238 54.4273C25.7609 54.4273 26.4395 53.7488 26.4395 52.9117C26.4395 52.0746 25.7609 51.396 24.9238 51.396C24.0867 51.396 23.4082 52.0746 23.4082 52.9117C23.4082 53.7488 24.0867 54.4273 24.9238 54.4273Z" fill="#F2C94C"/>
<path d="M24.6814 49.0146C25.2812 49.0146 25.7674 48.5283 25.7674 47.9285C25.7674 47.3287 25.2812 46.8425 24.6814 46.8425C24.0816 46.8425 23.5953 47.3287 23.5953 47.9285C23.5953 48.5283 24.0816 49.0146 24.6814 49.0146Z" fill="#F2C94C"/>
<path d="M14.4821 48.9692C15.9779 48.9692 17.1904 47.7567 17.1904 46.2609C17.1904 44.7652 15.9779 43.5526 14.4821 43.5526C12.9864 43.5526 11.7738 44.7652 11.7738 46.2609C11.7738 47.7567 12.9864 48.9692 14.4821 48.9692Z" fill="#F2C94C"/>
<path d="M22.5632 40.6293C23.0422 40.6293 23.4305 40.2411 23.4305 39.7621C23.4305 39.2832 23.0422 38.8949 22.5632 38.8949C22.0843 38.8949 21.696 39.2832 21.696 39.7621C21.696 40.2411 22.0843 40.6293 22.5632 40.6293Z" fill="#F2C94C"/>
<path d="M19.6874 34.0033C21.0623 34.0033 22.1769 32.8887 22.1769 31.5138C22.1769 30.1388 21.0623 29.0243 19.6874 29.0243C18.3125 29.0243 17.1979 30.1388 17.1979 31.5138C17.1979 32.8887 18.3125 34.0033 19.6874 34.0033Z" fill="#F2C94C"/>
</svg>
